<?xml version="1.0" encoding="utf-8"?>
<!-- Generator: Adobe Illustrator 24.3.0, SVG Export Plug-In . SVG Version: 6.00 Build 0)  -->
<svg version="1.1" id="Layer_1" xmlns="http://www.w3.org/2000/svg" xmlns:xlink="http://www.w3.org/1999/xlink" x="0px" y="0px"
	 viewBox="0 0 1000 1000" style="enable-background:new 0 0 1000 1000;" xml:space="preserve">
<style type="text/css">
	.st0{fill:#123D27;}
	.st1{fill:#173D27;}
	.st2{fill:#2D3135;}
	.st3{fill:#FFFFFF;}
</style>
<rect class="st0" width="1000" height="1000"/>
<g>
	<g>
		<path class="st3" d="M338.17,520.89h-15.09V472.1h15.09V520.89z"/>
		<path class="st3" d="M392.79,491.57c5.98,0,10.53,1.11,13.64,3.32c3.11,2.21,4.67,5.55,4.67,10.03c0,2.48-0.39,4.72-1.17,6.71
			c-0.78,1.99-2.02,3.67-3.72,5.03c-1.7,1.36-3.88,2.41-6.53,3.14c-2.65,0.73-5.82,1.09-9.52,1.09h-45.43l9.7-12.54h36.9
			c1.8,0,3.11-0.28,3.94-0.84c0.83-0.56,1.24-1.47,1.24-2.73c0-1.26-0.41-2.16-1.24-2.7c-0.83-0.53-2.14-0.8-3.94-0.8h-26.54
			c-3.16,0-5.88-0.34-8.17-1.02c-2.29-0.68-4.18-1.63-5.69-2.84c-1.51-1.21-2.62-2.69-3.35-4.41c-0.73-1.73-1.09-3.63-1.09-5.72
			c0-2.28,0.4-4.36,1.2-6.23c0.8-1.87,2.04-3.46,3.72-4.78c1.68-1.31,3.84-2.33,6.49-3.06c2.65-0.73,5.82-1.09,9.52-1.09h42.37
			l-9.7,12.69h-33.84c-1.75,0-3.05,0.24-3.9,0.73c-0.85,0.49-1.28,1.36-1.28,2.63c0,1.27,0.43,2.15,1.28,2.66
			c0.85,0.51,2.15,0.77,3.9,0.77H392.79z"/>
		<path class="st3" d="M513.09,445.36c-1-0.35-2.06-0.71-3.17-1.09c-1.13-0.33-2.3-0.67-3.53-1.02c-2.46-0.7-5.12-1.46-7.97-2.28
			c-1.42-0.4-2.89-0.82-4.41-1.25c-1.53-0.35-3.11-0.7-4.73-1.07c-3.24-0.73-6.65-1.5-10.21-2.31c-7.2-1.17-14.99-2.69-23.35-3.4
			c-2.09-0.21-4.2-0.49-6.35-0.65c-2.15-0.11-4.33-0.22-6.53-0.33c-2.2-0.11-4.43-0.22-6.68-0.34c-2.25,0.01-4.53,0.03-6.82,0.04
			c-2.3,0.02-4.61,0.04-6.95,0.06c-2.33,0.15-4.68,0.3-7.04,0.45c-2.36,0.18-4.75,0.23-7.13,0.53c-2.38,0.29-4.77,0.57-7.17,0.86
			c-1.2,0.14-2.41,0.29-3.61,0.44c-1.21,0.15-2.4,0.4-3.6,0.6c-2.4,0.42-4.81,0.85-7.23,1.27l-1.81,0.32l-1.8,0.41l-3.59,0.83
			c-2.39,0.57-4.81,1.07-7.19,1.71l-7.11,2.04l-3.55,1.03l-3.49,1.19c-2.33,0.79-4.66,1.59-6.97,2.38c-2.28,0.9-4.55,1.79-6.82,2.68
			c-1.13,0.45-2.26,0.89-3.39,1.34c-1.12,0.47-2.21,0.98-3.32,1.47c-2.2,0.99-4.4,1.97-6.58,2.95c-2.14,1.07-4.26,2.13-6.37,3.18
			c-1.05,0.53-2.11,1.06-3.15,1.58c-1.02,0.56-2.05,1.13-3.06,1.69c-2.03,1.13-4.05,2.24-6.04,3.35c-1.95,1.18-3.89,2.35-5.8,3.51
			c-1.93,1.13-3.79,2.34-5.61,3.55c-1.82,1.21-3.65,2.37-5.4,3.58c-5.58,3.87-10.78,7.74-15.57,11.55l-14.43-14.09h-20.93l14.95,14
			c1.9,1.8,3.48,3.27,4.74,4.41c1.26,1.14,2.31,2.09,3.14,2.84c0.79,0.72,1.44,1.28,1.97,1.69c-2.99,2.62-5.78,5.16-8.29,7.58
			c-4.4,4.18-8.1,7.98-11.07,11.18c-2.75,2.93-4.89,5.37-6.38,7.07h18.74h2.77c2-2.3,4.24-4.8,6.77-7.49
			c2.41-2.6,5.13-5.34,8.05-8.18l16.17,15.67h21.29l-15.61-14.66c-1.99-1.85-3.65-3.38-4.96-4.59c-1.31-1.21-2.41-2.22-3.28-3.03
			c-0.88-0.8-1.58-1.42-2.11-1.86c-0.47-0.39-0.9-0.71-1.3-0.98c4.01-3.5,8.32-7.07,12.94-10.66c1.6-1.24,3.28-2.43,4.95-3.68
			c1.67-1.25,3.37-2.49,5.15-3.67c1.76-1.2,3.54-2.42,5.34-3.65c1.84-1.16,3.71-2.33,5.58-3.5c0.94-0.59,1.89-1.18,2.83-1.77
			c0.97-0.55,1.94-1.11,2.92-1.67c1.96-1.11,3.93-2.24,5.92-3.37c2.03-1.05,4.07-2.1,6.13-3.16c1.03-0.52,2.05-1.07,3.1-1.58
			c1.06-0.48,2.11-0.97,3.17-1.46c2.12-0.97,4.25-1.95,6.39-2.93c2.18-0.88,4.37-1.76,6.56-2.64l3.29-1.33l3.36-1.17l6.73-2.33
			c2.26-0.74,4.56-1.34,6.84-2.02l3.42-0.99l1.71-0.49l1.73-0.4c2.31-0.54,4.62-1.07,6.92-1.61c1.15-0.25,2.29-0.56,3.45-0.77
			c1.16-0.2,2.32-0.41,3.47-0.61c2.31-0.41,4.62-0.81,6.91-1.21c2.29-0.42,4.61-0.58,6.89-0.89c2.29-0.27,4.57-0.54,6.83-0.81
			c2.27-0.14,4.53-0.28,6.77-0.42c2.24-0.14,4.47-0.27,6.67-0.4c2.21-0.01,4.39-0.02,6.56-0.02c2.17-0.01,4.31-0.02,6.42-0.02
			c2.12,0.05,4.2,0.21,6.26,0.3c8.27,0.25,16.02,1.33,23.21,2.1c3.56,0.6,6.98,1.18,10.23,1.74c1.63,0.28,3.21,0.54,4.75,0.81
			c1.52,0.34,3,0.68,4.44,1c2.87,0.65,5.56,1.27,8.04,1.83c1.24,0.29,2.43,0.56,3.57,0.82c1.12,0.32,2.19,0.63,3.21,0.92
			c8.15,2.33,12.8,3.66,12.8,3.66S521.11,448.13,513.09,445.36z"/>
		<path class="st3" d="M275.28,473.97l5.29,5.82c0,0,43.08-40.54,109.73-48.17C390.29,431.62,338.53,428.84,275.28,473.97z"/>
		<path class="st3" d="M564.74,472.63l-9.66,12.54h-17.23v35.69h-14.92v-35.69h-22.64l9.66-12.54H564.74z"/>
		<path class="st3" d="M632.87,520.86H612.9l-10.74-12.76h-22.93v12.76h-14.92V496.2h41.96c2.31,0,4.25-0.48,5.84-1.44
			c1.59-0.96,2.38-2.28,2.38-3.97c0-1.87-0.72-3.28-2.16-4.22c-1.44-0.94-3.46-1.41-6.06-1.41h-41.96l9.73-12.54h31
			c2.74,0,5.58,0.25,8.51,0.76c2.93,0.5,5.6,1.41,8,2.7c2.4,1.3,4.39,3.05,5.95,5.26c1.56,2.21,2.34,5.05,2.34,8.51
			c0,1.87-0.29,3.65-0.87,5.34c-0.58,1.68-1.41,3.2-2.49,4.54c-1.08,1.35-2.4,2.49-3.97,3.42c-1.56,0.94-3.33,1.6-5.3,1.98
			c0.82,0.62,1.73,1.42,2.74,2.38c1.01,0.96,2.35,2.28,4.04,3.97L632.87,520.86z"/>
		<path class="st3" d="M694.22,508.46l-9.59,12.4H638.2v-48.23h55.87l-9.66,12.54H653.2v5.77h38.21l-8.58,10.96H653.2v6.56H694.22z"
			/>
		<path class="st3" d="M719.74,520.86l9.01-12.4h12.11c1.44,0,2.94,0,4.51,0c1.56,0,2.92,0.05,4.07,0.14
			c-0.67-0.87-1.45-1.96-2.34-3.28c-0.89-1.32-1.74-2.56-2.56-3.71l-8.65-12.76l-22.64,32.01h-17.66l30.93-43.62
			c1.01-1.39,2.28-2.64,3.82-3.75c1.54-1.11,3.48-1.66,5.84-1.66c2.26,0,4.15,0.52,5.66,1.55c1.51,1.03,2.8,2.32,3.86,3.86
			l30.14,43.62H719.74z"/>
		<path class="st3" d="M814.47,490.58c1.06,1.87,1.98,3.52,2.78,4.94c0.79,1.42,1.49,2.68,2.09,3.78c0.6,1.11,1.13,2.12,1.59,3.03
			c0.46,0.91,0.9,1.8,1.33,2.67c0.38-0.87,0.8-1.74,1.26-2.63c0.46-0.89,0.98-1.9,1.59-3.03c0.6-1.13,1.3-2.39,2.09-3.78
			c0.79-1.39,1.72-3.03,2.78-4.9l7.71-13.7c0.86-1.54,1.96-2.78,3.28-3.71c1.32-0.94,2.97-1.41,4.94-1.41
			c1.87,0,3.57,0.54,5.08,1.62c1.51,1.08,2.61,2.75,3.28,5.01l12.18,42.39H851.6l-4.54-16.8c-0.77-2.74-1.42-5.14-1.95-7.21
			c-0.53-2.07-0.99-4.08-1.37-6.06c-0.82,1.68-1.73,3.55-2.74,5.59c-1.01,2.04-2.33,4.63-3.97,7.75l-6.49,12.11
			c-0.63,1.2-1.26,2.15-1.91,2.85c-0.65,0.7-1.31,1.24-1.98,1.62c-0.67,0.38-1.39,0.64-2.16,0.76c-0.77,0.12-1.61,0.18-2.52,0.18
			c-0.91,0-1.76-0.06-2.52-0.18c-0.77-0.12-1.49-0.37-2.16-0.76c-0.67-0.38-1.33-0.93-1.98-1.62c-0.65-0.7-1.29-1.65-1.91-2.85
			l-6.49-12.18c-0.87-1.63-1.63-3.1-2.31-4.4c-0.67-1.3-1.29-2.46-1.84-3.5c-0.55-1.03-1.03-1.98-1.44-2.85
			c-0.41-0.87-0.81-1.71-1.19-2.52c-0.38,1.92-0.84,3.93-1.37,6.02c-0.53,2.09-1.15,4.51-1.87,7.25l-4.54,16.8H777.7l12.47-42.39
			c0.67-2.26,1.78-3.93,3.32-5.01c1.54-1.08,3.24-1.62,5.12-1.62c1.92,0,3.54,0.46,4.87,1.37c1.32,0.91,2.41,2.16,3.28,3.75
			L814.47,490.58z"/>
		<g>
			<path class="st3" d="M166.15,520.86l12.16-16.74h16.35c1.95,0,3.97,0,6.08,0c2.11,0,3.94,0.07,5.5,0.19
				c-0.91-1.17-1.96-2.64-3.16-4.43c-1.2-1.78-2.35-3.45-3.45-5.01l-11.68-17.22l-30.56,43.21h-23.84l41.75-58.87
				c1.36-1.88,3.08-3.57,5.16-5.06c2.08-1.49,4.7-2.24,7.88-2.24c3.05,0,5.6,0.7,7.64,2.09c2.04,1.4,3.78,3.13,5.21,5.21
				l40.68,58.87H166.15z"/>
		</g>
		<g>
			<path class="st3" d="M472.77,484.59c7.4,0,13.03,1.37,16.89,4.11c3.85,2.74,5.78,6.88,5.78,12.42c0,3.07-0.48,5.84-1.45,8.31
				c-0.96,2.47-2.5,4.55-4.6,6.23c-2.11,1.69-4.8,2.98-8.08,3.88c-3.28,0.9-7.21,1.35-11.78,1.35h-56.25l12.01-15.53h45.69
				c2.23,0,3.85-0.35,4.88-1.04c1.02-0.69,1.53-1.82,1.53-3.39c0-1.56-0.51-2.68-1.53-3.34c-1.02-0.66-2.65-0.99-4.88-0.99h-32.87
				c-3.91,0-7.28-0.42-10.11-1.26c-2.83-0.84-5.18-2.02-7.04-3.52c-1.87-1.5-3.25-3.33-4.15-5.46c-0.9-2.14-1.35-4.5-1.35-7.09
				c0-2.83,0.5-5.4,1.49-7.72c0.99-2.32,2.53-4.29,4.61-5.91c2.08-1.63,4.75-2.89,8.04-3.79c3.28-0.9,7.21-1.35,11.78-1.35h52.46
				l-12.01,15.71h-41.9c-2.17,0-3.78,0.3-4.83,0.9c-1.05,0.6-1.58,1.69-1.58,3.25c0,1.57,0.53,2.66,1.58,3.3
				c1.05,0.63,2.66,0.95,4.83,0.95H472.77z"/>
		</g>
	</g>
	<g>
		<path class="st3" d="M285.63,558.69c0,6.03-3.79,9.72-10.02,9.72c-6.23,0-10.05-3.69-10.05-9.72v-13.51h3.89v13.51
			c0,3.89,2.41,6.23,6.2,6.23c3.76,0,6.1-2.31,6.1-6.23v-13.51h3.89V558.69z"/>
		<path class="st3" d="M315.63,568.25l-12.3-16.55v16.55h-3.89v-23.07h3.82l12.36,16.58v-16.58h3.82v23.07H315.63z"/>
		<path class="st3" d="M347.67,564.72v3.53h-13.88v-23.07h3.89v19.55H347.67z"/>
		<path class="st3" d="M382.18,556.71c0,6.59-5.34,11.7-12.23,11.7c-6.89,0-12.23-5.11-12.23-11.7c0-6.63,5.34-11.64,12.23-11.64
			C376.84,545.08,382.18,550.12,382.18,556.71z M361.68,556.71c0,4.58,3.79,8.21,8.31,8.21c4.52,0,8.21-3.63,8.21-8.21
			c0-4.58-3.69-8.14-8.21-8.14C365.43,548.57,361.68,552.13,361.68,556.71z"/>
		<path class="st3" d="M412.63,548.64l-2.27,2.83c-1.68-1.81-4.09-2.93-6.43-2.93c-4.61,0-8.24,3.56-8.24,8.11s3.63,8.14,8.24,8.14
			c2.31,0,4.68-1.05,6.43-2.74l2.31,2.57c-2.34,2.31-5.67,3.79-8.93,3.79c-6.76,0-12-5.11-12-11.73c0-6.56,5.31-11.6,12.13-11.6
			C407.13,545.08,410.39,546.43,412.63,548.64z"/>
		<path class="st3" d="M432.68,558.06l-3.92,4.32v5.87h-3.89v-23.07h3.89v11.93l11.01-11.93h4.58l-8.93,9.86l9.53,13.22h-4.68
			L432.68,558.06z"/>
		<path class="st3" d="M482.97,568.25h-3.86v-7.55l-8.6-15.53h3.92l6.59,11.24l6.46-11.24h3.96l-8.47,15.39V568.25z"/>
		<path class="st3" d="M524.31,556.71c0,6.59-5.34,11.7-12.23,11.7c-6.89,0-12.23-5.11-12.23-11.7c0-6.63,5.34-11.64,12.23-11.64
			C518.97,545.08,524.31,550.12,524.31,556.71z M503.81,556.71c0,4.58,3.79,8.21,8.31,8.21c4.52,0,8.21-3.63,8.21-8.21
			c0-4.58-3.69-8.14-8.21-8.14C507.56,548.57,503.81,552.13,503.81,556.71z"/>
		<path class="st3" d="M556.32,558.69c0,6.03-3.79,9.72-10.02,9.72c-6.23,0-10.05-3.69-10.05-9.72v-13.51h3.89v13.51
			c0,3.89,2.41,6.23,6.2,6.23c3.76,0,6.1-2.31,6.1-6.23v-13.51h3.89V558.69z"/>
		<path class="st3" d="M580.54,561.26c-0.33,0.03-0.69,0.03-1.05,0.03h-5.47v6.96h-3.89v-23.07h9.36c5.9,0,9.3,2.87,9.3,7.88
			c0,3.69-1.71,6.3-4.78,7.48l5.18,7.71h-4.42L580.54,561.26z M579.49,557.8c3.56,0,5.6-1.52,5.6-4.65c0-3.03-2.04-4.48-5.6-4.48
			h-5.47v9.13H579.49z"/>
		<path class="st3" d="M628.4,545.17c6.92,0,11.93,4.85,11.93,11.54c0,6.66-5.04,11.54-12.03,11.54h-9.36v-23.07H628.4z
			 M622.83,564.75h5.67c4.48,0,7.91-3.33,7.91-8.01c0-4.71-3.53-8.08-8.08-8.08h-5.51V564.75z"/>
		<path class="st3" d="M655.4,563.04l-2.21,5.21h-4.05l10.19-23.07h3.99l10.09,23.07h-4.15l-2.21-5.21H655.4z M661.2,549.33
			l-4.35,10.25h8.7L661.2,549.33z"/>
		<path class="st3" d="M690.87,548.67v19.58h-3.89v-19.58h-7.28v-3.49h18.49v3.49H690.87z"/>
		<path class="st3" d="M710.74,563.04l-2.21,5.21h-4.05l10.19-23.07h3.99l10.09,23.07h-4.15l-2.21-5.21H710.74z M716.54,549.33
			l-4.35,10.25h8.7L716.54,549.33z"/>
	</g>
</g>
</svg>
